<?xml version="1.0" encoding="UTF-8"?><svg id="Layer_1" xmlns="http://www.w3.org/2000/svg" viewBox="0 0 289.13 289.13"><defs><style>.cls-1{fill:#0034bf;}</style></defs><path class="cls-1" d="M145.04,65.18c30.2,0,55.58-20.55,62.97-48.43C188.88,7.31,167.35,2,144.57,2s-43.69,5.15-62.61,14.33c7.25,28.09,32.73,48.85,63.08,48.85Z"/><path class="cls-1" d="M219.08,101.86c0,36,29.18,65.18,65.18,65.18,.78,0,1.56-.03,2.34-.06,1.04-6.97,1.58-14.11,1.58-21.37,0-38.15-14.88-72.82-39.15-98.54-18,11.6-29.95,31.78-29.95,54.79h0Z"/><path class="cls-1" d="M69.8,101.86c0-22.94-11.87-43.07-29.78-54.69C15.8,72.88,.96,107.51,.96,145.61c0,7.26,.54,14.4,1.58,21.37,.69,.03,1.38,.05,2.08,.05,36,0,65.18-29.18,65.18-65.18h0Z"/><path class="cls-1" d="M58.03,201.07c-14.87,0-28.55,5-39.52,13.38,20.59,37.62,57.53,65.02,101.26,72.63,2.21-6.54,3.43-13.55,3.43-20.84,0-36-29.18-65.18-65.18-65.18h.01Z"/><path class="cls-1" d="M165.53,266.24c0,7.31,1.23,14.34,3.45,20.9,43.82-7.51,80.85-34.86,101.52-72.48-11.01-8.51-24.8-13.6-39.8-13.6-36,0-65.18,29.18-65.18,65.18h.01Z"/></svg>